<svg width="191" height="117" viewBox="0 0 191 117" fill="none" xmlns="http://www.w3.org/2000/svg">
<path d="M12.0801 18.0648C12.0801 18.0648 17.1711 4.59753 29.8496 1.56641" stroke="#0F1214" stroke-miterlimit="10" stroke-linecap="round" stroke-dasharray="3 3"/>
<path d="M185.956 90.7408H5.42548C1.44266 90.7408 -0.506341 85.8845 2.37485 83.1337L32.1319 54.7129H159.243L189 83.1337C191.888 85.8845 189.939 90.7408 185.956 90.7408Z" stroke="#0F1214" stroke-miterlimit="10"/>
<path d="M47.2283 60.1109H34.3281L36.2837 58.3965H49.8357L47.2283 60.1109Z" fill="#0F1214" stroke="#0F1214" stroke-miterlimit="10"/>
<path d="M63.3945 60.1109H49.8359L52.4434 58.3965H65.3501L63.3945 60.1109Z" fill="#0F1214" stroke="#0F1214" stroke-miterlimit="10"/>
<path d="M79.5539 60.1109H66.002L67.9575 58.3965H80.8576L79.5539 60.1109Z" fill="#0F1214" stroke="#0F1214" stroke-miterlimit="10"/>
<path d="M94.417 60.1109H82.1621L83.4658 58.3965H95.0688L94.417 60.1109Z" fill="#0F1214" stroke="#0F1214" stroke-miterlimit="10"/>
<path d="M109.924 60.1109H97.0234L97.6753 58.3965H109.924V60.1109Z" fill="#0F1214" stroke="#0F1214" stroke-miterlimit="10"/>
<path d="M124.786 60.1109H112.531V58.3965H123.482L124.786 60.1109Z" fill="#0F1214" stroke="#0F1214" stroke-miterlimit="10"/>
<path d="M141.604 60.1109H127.394L126.09 58.3965H138.997L141.604 60.1109Z" fill="#0F1214" stroke="#0F1214" stroke-miterlimit="10"/>
<path d="M157.111 60.1109H144.211L141.604 58.3965H154.504L157.111 60.1109Z" fill="#0F1214" stroke="#0F1214" stroke-miterlimit="10"/>
<path d="M38.6964 63.1343H30.5352L32.4255 61.4199H40.9974L38.6964 63.1343Z" fill="#0F1214" stroke="#0F1214" stroke-miterlimit="10"/>
<path d="M49.1592 63.1343H40.998L43.5402 61.4199H51.4602L49.1592 63.1343Z" fill="#0F1214" stroke="#0F1214" stroke-miterlimit="10"/>
<path d="M59.6267 63.1343H51.459L54.0012 61.4199H61.9278L59.6267 63.1343Z" fill="#0F1214" stroke="#0F1214" stroke-miterlimit="10"/>
<path d="M70.0894 63.1343H62.5801L64.4704 61.4199H71.7386L70.0894 63.1343Z" fill="#0F1214" stroke="#0F1214" stroke-miterlimit="10"/>
<path d="M79.2481 63.1343H72.3906L74.281 61.4199H80.8973L79.2481 63.1343Z" fill="#0F1214" stroke="#0F1214" stroke-miterlimit="10"/>
<path d="M88.4129 63.1343H81.5488L83.4392 61.4199H89.4101L88.4129 63.1343Z" fill="#0F1214" stroke="#0F1214" stroke-miterlimit="10"/>
<path d="M97.5719 63.1343H90.0625L91.2945 61.4199H97.9174L97.5719 63.1343Z" fill="#0F1214" stroke="#0F1214" stroke-miterlimit="10"/>
<path d="M107.382 63.1343H99.2207L99.8074 61.4199H107.076L107.382 63.1343Z" fill="#0F1214" stroke="#0F1214" stroke-miterlimit="10"/>
<path d="M115.896 63.1343H109.032L108.967 61.4199H114.938L115.896 63.1343Z" fill="#0F1214" stroke="#0F1214" stroke-miterlimit="10"/>
<path d="M125.705 63.1343H117.544L116.82 61.4199H124.095L125.705 63.1343Z" fill="#0F1214" stroke="#0F1214" stroke-miterlimit="10"/>
<path d="M134.213 63.1343H127.355L125.986 61.4199H132.603L134.213 63.1343Z" fill="#0F1214" stroke="#0F1214" stroke-miterlimit="10"/>
<path d="M144.029 63.1343H135.861L134.492 61.4199H141.767L144.029 63.1343Z" fill="#0F1214" stroke="#0F1214" stroke-miterlimit="10"/>
<path d="M160.905 63.1343H146.415L144.303 61.4199H158.311L160.905 63.1343Z" fill="#0F1214" stroke="#0F1214" stroke-miterlimit="10"/>
<path d="M35.4034 66.1519H27.2422L29.1326 64.4375H37.711L35.4034 66.1519Z" fill="#0F1214" stroke="#0F1214" stroke-miterlimit="10"/>
<path d="M45.8722 66.1519H37.7109L40.2467 64.4375H48.1731L45.8722 66.1519Z" fill="#0F1214" stroke="#0F1214" stroke-miterlimit="10"/>
<path d="M56.9869 66.1519H48.1738L50.7161 64.4375H58.6361L56.9869 66.1519Z" fill="#0F1214" stroke="#0F1214" stroke-miterlimit="10"/>
<path d="M66.7984 66.1519H59.2891L61.1795 64.4375H68.4542L66.7984 66.1519Z" fill="#0F1214" stroke="#0F1214" stroke-miterlimit="10"/>
<path d="M75.9629 66.1519H69.1055L70.9893 64.4375H77.6121L75.9629 66.1519Z" fill="#0F1214" stroke="#0F1214" stroke-miterlimit="10"/>
<path d="M85.1212 66.1519H78.2637L80.1541 64.4375H86.1185L85.1212 66.1519Z" fill="#0F1214" stroke="#0F1214" stroke-miterlimit="10"/>
<path d="M94.2789 66.1519H86.7695L88.0081 64.4375H94.6243L94.2789 66.1519Z" fill="#0F1214" stroke="#0F1214" stroke-miterlimit="10"/>
<path d="M104.097 66.1519H95.9297L96.5164 64.4375H104.443L104.097 66.1519Z" fill="#0F1214" stroke="#0F1214" stroke-miterlimit="10"/>
<path d="M121.729 66.1519H114.871L114.154 64.4375H120.771L121.729 66.1519Z" fill="#0F1214" stroke="#0F1214" stroke-miterlimit="10"/>
<path d="M112.91 66.1519H106.053L106.639 64.4375H111.952L112.91 66.1519Z" fill="#0F1214" stroke="#0F1214" stroke-miterlimit="10"/>
<path d="M131.54 66.1519H124.031L122.662 64.4375H129.93L131.54 66.1519Z" fill="#0F1214" stroke="#0F1214" stroke-miterlimit="10"/>
<path d="M141.357 66.1519H133.842L132.473 64.4375H139.096L141.357 66.1519Z" fill="#0F1214" stroke="#0F1214" stroke-miterlimit="10"/>
<path d="M151.167 66.1519H143.658L141.637 64.4375H148.905L151.167 66.1519Z" fill="#0F1214" stroke="#0F1214" stroke-miterlimit="10"/>
<path d="M164.138 66.1519H153.532L151.166 64.4375H161.57L164.138 66.1519Z" fill="#0F1214" stroke="#0F1214" stroke-miterlimit="10"/>
<path d="M32.4386 69.1772H24.2773L26.1677 67.4629H34.7395L32.4386 69.1772Z" fill="#0F1214" stroke="#0F1214" stroke-miterlimit="10"/>
<path d="M42.9015 69.1772H34.7402L37.2825 67.4629H45.209L42.9015 69.1772Z" fill="#0F1214" stroke="#0F1214" stroke-miterlimit="10"/>
<path d="M54.0221 69.1772H45.209L47.7447 67.4629H55.6712L54.0221 69.1772Z" fill="#0F1214" stroke="#0F1214" stroke-miterlimit="10"/>
<path d="M63.8316 69.1772H56.3223L58.2127 67.4629H65.4808L63.8316 69.1772Z" fill="#0F1214" stroke="#0F1214" stroke-miterlimit="10"/>
<path d="M72.9903 69.1772H66.1328L68.0232 67.4629H74.6395L72.9903 69.1772Z" fill="#0F1214" stroke="#0F1214" stroke-miterlimit="10"/>
<path d="M82.155 69.1772H75.291L77.1813 67.4629H83.1523L82.155 69.1772Z" fill="#0F1214" stroke="#0F1214" stroke-miterlimit="10"/>
<path d="M91.3141 69.1772H83.8047L85.0432 67.4629H91.6596L91.3141 69.1772Z" fill="#0F1214" stroke="#0F1214" stroke-miterlimit="10"/>
<path d="M101.124 69.1772H92.9629L93.5496 67.4629H101.47L101.124 69.1772Z" fill="#0F1214" stroke="#0F1214" stroke-miterlimit="10"/>
<path d="M128.542 69.1772H121.026L120.309 67.4629H126.931L128.542 69.1772Z" fill="#0F1214" stroke="#0F1214" stroke-miterlimit="10"/>
<path d="M118.985 69.1772H112.121L111.404 67.4629H118.027L118.985 69.1772Z" fill="#0F1214" stroke="#0F1214" stroke-miterlimit="10"/>
<path d="M110.1 69.1772H103.242L103.829 67.4629H109.141L110.1 69.1772Z" fill="#0F1214" stroke="#0F1214" stroke-miterlimit="10"/>
<path d="M137.701 69.1772H130.191L128.822 67.4629H136.09L137.701 69.1772Z" fill="#0F1214" stroke="#0F1214" stroke-miterlimit="10"/>
<path d="M146.207 69.1772H139.349L137.98 67.4629H143.945L146.207 69.1772Z" fill="#0F1214" stroke="#0F1214" stroke-miterlimit="10"/>
<path d="M156.023 69.1772H148.507L146.486 67.4629H153.761L156.023 69.1772Z" fill="#0F1214" stroke="#0F1214" stroke-miterlimit="10"/>
<path d="M167.686 69.1772H158.09L156.037 67.4629H165.319L167.686 69.1772Z" fill="#0F1214" stroke="#0F1214" stroke-miterlimit="10"/>
<path d="M29.1267 72.1961H20.959L22.8494 70.4883H31.4278L29.1267 72.1961Z" fill="#0F1214" stroke="#0F1214" stroke-miterlimit="10"/>
<path d="M39.589 72.1961H31.4277L33.97 70.4883H41.89L39.589 72.1961Z" fill="#0F1214" stroke="#0F1214" stroke-miterlimit="10"/>
<path d="M50.7036 72.1961H41.8906L44.4328 70.4883H52.3528L50.7036 72.1961Z" fill="#0F1214" stroke="#0F1214" stroke-miterlimit="10"/>
<path d="M60.5198 72.1961H53.0039L54.8943 70.4883H62.169L60.5198 72.1961Z" fill="#0F1214" stroke="#0F1214" stroke-miterlimit="10"/>
<path d="M117.615 72.1961H62.8203L64.7824 70.4883H116.702L117.615 72.1961Z" fill="#0F1214" stroke="#0F1214" stroke-miterlimit="10"/>
<path d="M126.528 72.1961H119.67L118.953 70.4883H125.569L126.528 72.1961Z" fill="#0F1214" stroke="#0F1214" stroke-miterlimit="10"/>
<path d="M136.344 72.1961H128.176L127.459 70.4883H134.734L136.344 72.1961Z" fill="#0F1214" stroke="#0F1214" stroke-miterlimit="10"/>
<path d="M144.85 72.1961H137.993L136.617 70.4883H143.24L144.85 72.1961Z" fill="#0F1214" stroke="#0F1214" stroke-miterlimit="10"/>
<path d="M154.661 72.1961H146.5L145.131 70.4883H152.399L154.661 72.1961Z" fill="#0F1214" stroke="#0F1214" stroke-miterlimit="10"/>
<path d="M171.544 72.1961H157.053L154.941 70.4883H168.95L171.544 72.1961Z" fill="#0F1214" stroke="#0F1214" stroke-miterlimit="10"/>
<path d="M126.155 82.9899H63.2188L70.3891 74.9199H119.637L126.155 82.9899Z" stroke="#0F1214" stroke-miterlimit="10"/>
<path d="M101.163 51.0427H28.5922C25.548 51.0427 23.084 48.5787 23.084 45.5345V16.5531C23.084 13.5089 25.548 11.0449 28.5922 11.0449H101.163C104.207 11.0449 106.671 13.5089 106.671 16.5531V45.5345C106.671 48.5787 104.207 51.0427 101.163 51.0427Z" fill="#F5F5F4" stroke="#0F1214" stroke-miterlimit="10"/>
<path d="M101.274 36.6035H82.2266V37.5422H101.274V36.6035Z" fill="#F5F5F4" stroke="#0F1214" stroke-miterlimit="10"/>
<path d="M101.274 39.4727H82.2266V40.4113H101.274V39.4727Z" fill="#F5F5F4" stroke="#0F1214" stroke-miterlimit="10"/>
<path d="M101.274 42.3398H82.2266V43.2785H101.274V42.3398Z" fill="#F5F5F4" stroke="#0F1214" stroke-miterlimit="10"/>
<path d="M101.274 45.209H82.2266V46.1477H101.274V45.209Z" fill="#F5F5F4" stroke="#0F1214" stroke-miterlimit="10"/>
<path d="M82.227 15.666H76.6797V23.7164H82.227V15.666Z" fill="#0F1214" stroke="#0F1214" stroke-miterlimit="10"/>
<path d="M74.0336 15.7188H68.4863V23.7691H74.0336V15.7188Z" fill="#0F1214" stroke="#0F1214" stroke-miterlimit="10"/>
<path d="M65.8324 15.7637H60.2852V23.8141H65.8324V15.7637Z" fill="#0F1214" stroke="#0F1214" stroke-miterlimit="10"/>
<path d="M57.6391 15.8164H52.0918V23.8668H57.6391V15.8164Z" fill="#0F1214" stroke="#0F1214" stroke-miterlimit="10"/>
<path d="M49.1586 15.8164H43.6113V23.8668H49.1586V15.8164Z" fill="#0F1214" stroke="#0F1214" stroke-miterlimit="10"/>
<path d="M40.4828 15.8164H34.9355V23.8668H40.4828V15.8164Z" fill="#0F1214" stroke="#0F1214" stroke-miterlimit="10"/>
<path d="M144.695 31.2721H92.6179C89.3913 31.2721 86.7773 28.6581 86.7773 25.4315V6.8406C86.7773 3.61393 89.3913 1 92.6179 1H144.695C147.921 1 150.535 3.61393 150.535 6.8406V25.4315C150.542 28.6516 147.928 31.2721 144.695 31.2721Z" fill="#0F1214" stroke="#0F1214" stroke-miterlimit="10" stroke-linecap="round"/>
<path d="M182.071 44.0357H129.995C126.768 44.0357 124.154 41.4218 124.154 38.1951V19.6043C124.154 16.3776 126.768 13.7637 129.995 13.7637H182.071C185.298 13.7637 187.912 16.3776 187.912 19.6043V38.1951C187.919 41.4218 185.305 44.0357 182.071 44.0357Z" fill="#F5F5F4" stroke="#0F1214" stroke-miterlimit="10" stroke-linecap="round"/>
<path d="M185.473 96.653C178.153 84.1048 175.8 72.3193 172.664 65.0055C169.529 57.6917 158.284 29.2579 154.1 31.4481C149.915 33.6383 148.35 36.7737 147.822 39.9157" fill="#F5F5F4"/>
<path d="M185.473 96.653C178.153 84.1048 175.8 72.3193 172.664 65.0055C169.529 57.6917 158.284 29.2579 154.1 31.4481C149.915 33.6383 148.35 36.7737 147.822 39.9157" stroke="#0F1214" stroke-miterlimit="10"/>
<path d="M182.006 91.0136L181.869 91.0983L163.102 61.9279L165.416 60.9566L157.679 42.4766L130.242 53.9687L136.8 69.6198L133.384 71.8165L156.01 106.977L155.691 107.173C156.017 107.499 156.577 108.131 157.249 108.9L157.32 109.011L157.333 108.998C159.576 111.599 162.946 115.712 162.946 115.712L185.187 96.7955L182.006 91.0136Z" fill="#F5F5F4"/>
<path d="M157.241 56.3873C152.796 46.453 146.785 28.4097 142.079 29.72C137.373 31.0302 134.498 41.7467 134.498 47.2353" fill="#F5F5F4"/>
<path d="M157.241 56.3873C152.796 46.453 146.785 28.4097 142.079 29.72C137.373 31.0302 134.498 41.7467 134.498 47.2353" stroke="#0F1214" stroke-miterlimit="10"/>
<path d="M147.83 61.9873C144.955 57.1766 137.113 26.7089 132.407 29.6553C127.701 32.6017 124.044 39.1333 123.516 46.1928" fill="#F5F5F4"/>
<path d="M147.83 61.9873C144.955 57.1766 137.113 26.7089 132.407 29.6553C127.701 32.6017 124.044 39.1333 123.516 46.1928" stroke="#0F1214" stroke-miterlimit="10"/>
<path d="M139.981 67.169C135.216 56.8501 127.505 34.4264 123.287 34.1591C119.07 33.8984 110.439 51.5115 115.145 62.8342C119.852 74.1568 123.287 54.4122 123.287 54.4122C123.287 54.4122 129.564 77.1032 135.555 82.6896C127.583 80.1735 107.193 72.5011 104.892 76.7317C102.591 80.9622 136.318 96.6458 142.073 97.956C147.823 99.2663 162.731 115.999 162.731 115.999" fill="#F5F5F4"/>
<path d="M139.981 67.169C135.216 56.8501 127.505 34.4264 123.287 34.1591C119.07 33.8984 110.439 51.5115 115.145 62.8342C119.852 74.1569 123.287 54.4122 123.287 54.4122C123.287 54.4122 129.564 77.1032 135.555 82.6896C127.583 80.1735 107.193 72.5011 104.892 76.7317C102.591 80.9622 136.318 96.6458 142.073 97.956C147.823 99.2663 162.731 115.999 162.731 115.999" stroke="#0F1214" stroke-miterlimit="10"/>
<path d="M124.213 18.8145H187.919" stroke="#0F1214" stroke-miterlimit="10"/>
<path d="M86.8359 7.43359H150.542" stroke="#F5F5F4" stroke-miterlimit="10"/>
<path d="M180.318 15.0078L182.515 17.2046" stroke="#0F1214" stroke-miterlimit="10" stroke-linecap="round"/>
<path d="M182.516 15.0605L180.371 17.2052" stroke="#0F1214" stroke-miterlimit="10" stroke-linecap="round"/>
<path d="M141.271 2.75977L143.468 4.95651" stroke="#F5F5F4" stroke-miterlimit="10" stroke-linecap="round"/>
<path d="M143.469 2.8125L141.324 4.95709" stroke="#F5F5F4" stroke-miterlimit="10" stroke-linecap="round"/>
<path d="M98.9141 22.4125L100.166 21.4934C100.583 22.2495 101.137 22.5755 101.763 22.5755C102.721 22.5755 103.216 22.054 103.216 20.6003V13.7363H105.028V20.7568C105.028 22.6276 104.109 24.1529 101.978 24.1529C100.537 24.1529 99.5659 23.5663 98.9141 22.4125Z" fill="#F5F5F4"/>
<path d="M106.873 22.6539L107.929 21.4089C108.659 22.1064 109.643 22.5757 110.595 22.5757C111.749 22.5757 112.381 22.0542 112.381 21.2524C112.381 20.4116 111.723 20.1443 110.791 19.7467L109.389 19.1404C108.379 18.7232 107.323 17.9215 107.323 16.4287C107.323 14.7991 108.763 13.541 110.758 13.541C111.951 13.541 113.111 14.0364 113.913 14.8447L112.981 15.9985C112.329 15.4444 111.638 15.1185 110.758 15.1185C109.787 15.1185 109.155 15.5748 109.155 16.3179C109.155 17.1197 109.937 17.4195 110.784 17.765L112.166 18.3452C113.385 18.8536 114.232 19.6228 114.232 21.1025C114.232 22.7582 112.857 24.1467 110.556 24.1467C109.174 24.1532 107.844 23.6122 106.873 22.6539Z" fill="#F5F5F4"/>
<path d="M31.1286 51.0427H25.8811C24.3362 51.0427 23.0781 49.7911 23.0781 48.2397V13.8674C23.0781 12.3095 24.3428 11.0449 25.9007 11.0449H31.1221V51.0427H31.1286Z" fill="#0F1214" stroke="#0F1214" stroke-miterlimit="10"/>
<path d="M6.03906 96.653C13.3594 84.1048 15.7125 72.3193 18.8479 65.0055C21.9833 57.6917 33.2279 29.2579 37.4128 31.4481C41.5977 33.6383 43.1621 36.7737 43.6901 39.9157" fill="#F5F5F4"/>
<path d="M6.03906 96.653C13.3594 84.1048 15.7125 72.3193 18.8479 65.0055C21.9833 57.6917 33.2279 29.2579 37.4128 31.4481C41.5977 33.6383 43.1621 36.7737 43.6901 39.9157" stroke="#0F1214" stroke-miterlimit="10"/>
<path d="M9.51308 91.0136L9.64994 91.0983L28.4168 61.9279L26.1027 60.9566L33.8402 42.4766L61.2768 53.9687L54.7191 69.6198L58.1348 71.8165L35.509 106.977L35.8284 107.173C35.5025 107.499 34.9419 108.131 34.2705 108.9L34.1988 109.011L34.1857 108.998C31.9433 111.599 28.5733 115.712 28.5733 115.712L6.33203 96.7955L9.51308 91.0136Z" fill="#F5F5F4"/>
<path d="M34.2773 56.3873C38.723 46.453 44.7331 28.4097 49.4395 29.72C54.1458 31.0302 57.0205 41.7467 57.0205 47.2353" fill="#F5F5F4"/>
<path d="M34.2773 56.3873C38.723 46.453 44.7331 28.4097 49.4395 29.72C54.1458 31.0302 57.0205 41.7467 57.0205 47.2353" stroke="#0F1214" stroke-miterlimit="10"/>
<path d="M43.6895 61.9873C46.5641 57.1766 54.4059 26.7089 59.1122 29.6553C63.8186 32.6017 67.4755 39.1333 68.0035 46.1928" fill="#F5F5F4"/>
<path d="M43.6895 61.9873C46.5641 57.1766 54.4059 26.7089 59.1122 29.6553C63.8186 32.6017 67.4755 39.1333 68.0035 46.1928" stroke="#0F1214" stroke-miterlimit="10"/>
<path d="M51.531 67.169C56.296 56.8501 64.0074 34.4264 68.2249 34.1591C72.4424 33.8984 81.0729 51.5115 76.3666 62.8342C71.6602 74.1568 68.2249 54.4122 68.2249 54.4122C68.2249 54.4122 61.9476 77.1032 55.9571 82.6896C63.9292 80.1735 84.3192 72.5011 86.6203 76.7317C88.9213 80.9622 55.1944 96.6458 49.4385 97.956C43.6892 99.2663 28.7812 115.999 28.7812 115.999" fill="#F5F5F4"/>
<path d="M51.531 67.169C56.296 56.8501 64.0074 34.4264 68.2249 34.1591C72.4424 33.8984 81.0729 51.5115 76.3666 62.8342C71.6602 74.1569 68.2249 54.4122 68.2249 54.4122C68.2249 54.4122 61.9476 77.1032 55.9571 82.6896C63.9292 80.1735 84.3192 72.5011 86.6203 76.7317C88.9213 80.9622 55.1944 96.6458 49.4385 97.956C43.6892 99.2663 28.7812 115.999 28.7812 115.999" stroke="#0F1214" stroke-miterlimit="10"/>
<path d="M182.274 22.9277H129.852V23.8664H182.274V22.9277Z" fill="#F5F5F4" stroke="#0F1214" stroke-miterlimit="10"/>
<path d="M182.274 26.5918H129.852V27.5305H182.274V26.5918Z" fill="#F5F5F4" stroke="#0F1214" stroke-miterlimit="10"/>
<path d="M182.274 30.3008H161.773V31.2786H182.274V30.3008Z" fill="#F5F5F4" stroke="#0F1214" stroke-miterlimit="10"/>
</svg>
